<?xml version="1.0" encoding="utf-8"?>
<!-- Generator: Adobe Illustrator 15.1.0, SVG Export Plug-In . SVG Version: 6.00 Build 0)  -->
<!DOCTYPE svg PUBLIC "-//W3C//DTD SVG 1.1//EN" "http://www.w3.org/Graphics/SVG/1.1/DTD/svg11.dtd">
<svg version="1.1" id="Ebene_1" xmlns="http://www.w3.org/2000/svg" xmlns:xlink="http://www.w3.org/1999/xlink" x="0px" y="0px"
	 width="206.334px" height="37.333px" viewBox="0 0 206.334 37.333" enable-background="new 0 0 206.334 37.333"
	 xml:space="preserve">
<g>
	<path fill="#1769AF" d="M164.314,4.927l2.098,5.261c1.655-1.218,4.04-2.581,6.766-2.581c3.656,0,5.166,2.046,5.166,4.626
		c-0.05,3.703-3.413,8.865-10.377,15.099l-4.04,3.652v4.481h22.452v-6.088h-11.98v-0.098l2.92-2.436
		c4.628-4.091,8.428-9.936,8.428-15.294c0-5.698-3.895-9.886-11.105-9.886C170.402,1.664,166.654,3.124,164.314,4.927"/>
	<polygon fill="#1769AF" points="198.72,1.664 190.291,5.562 191.512,11.112 197.547,8.239 197.646,8.239 197.646,35.465 
		204.805,35.465 204.805,1.664 	"/>
	<rect x="57.308" y="1.649" fill="#1769AF" width="7.403" height="33.815"/>
	<rect x="102.157" y="1.649" fill="#1769AF" width="7.404" height="33.815"/>
	<polygon fill="#1769AF" points="115.302,1.649 115.302,7.883 124.165,7.883 124.165,35.465 131.568,35.465 131.568,7.883 
		140.532,7.883 140.532,1.649 	"/>
	<path fill="#1769AF" d="M28.382,2.333v33.132h7.373V22.987c0.684,0.147,1.563,0.195,2.539,0.195c4.395,0,8.154-1.123,10.693-3.467
		c2.001-1.807,3.027-4.589,3.027-7.813s-1.367-5.955-3.516-7.617c-2.198-1.757-5.469-2.637-10.058-2.637
		C33.899,1.649,30.677,1.942,28.382,2.333 M35.808,17.493V7.8c0.536-0.146,1.56-0.243,3.02-0.243c3.75,0,5.846,1.803,5.846,4.823
		c0,3.311-2.436,5.309-6.381,5.309C37.172,17.688,36.44,17.638,35.808,17.493"/>
	<path fill="#1769AF" d="M71.863,2.347v33.118h7.354V21.828h2.191c3.068,0.05,4.479,1.12,5.403,5.261
		c0.927,4.043,2.025,7.403,2.512,8.376h7.599c-0.633-1.266-1.876-6.28-2.902-10.031c-0.827-3.02-2.091-5.163-4.383-6.088v-0.147
		c2.825-1.022,5.798-3.896,5.798-8.036c0-3.02-1.071-5.357-3.067-6.916c-2.338-1.85-5.751-2.582-10.621-2.582
		C77.757,1.664,74.25,1.956,71.863,2.347 M79.218,7.46c0.532-0.146,1.558-0.243,3.36-0.243c3.406,0,5.455,1.558,5.455,4.53
		c0,2.873-2.192,4.724-5.894,4.724h-2.922V7.46z"/>
	<path fill="#1769AF" d="M1.197,11.502c0,4.773,3.604,7.794,9.059,9.741c3.945,1.362,5.505,2.533,5.505,4.578
		c0,2.143-1.804,3.556-5.212,3.556c-3.166,0-5.894-0.785-7.841-1.808l-1.502,6.056c1.85,1.022,5.153,1.84,8.903,1.84
		c9.012,0,13.2-4.676,13.2-10.179c0-4.628-2.679-7.648-8.476-9.791c-4.285-1.607-6.088-2.532-6.088-4.625
		c0-1.658,1.559-3.168,4.773-3.168c3.166,0,5.553,0.928,6.818,1.56l1.656-5.942c-1.948-0.925-4.628-1.655-8.378-1.655
		C5.922,1.664,1.197,5.901,1.197,11.502"/>
	<polygon fill="#1769AF" points="151.9,1.664 141.911,35.465 147.69,35.465 157.674,1.664 	"/>
</g>
</svg>
